<?xml version="1.0" encoding="UTF-8" standalone="no"?>
<!DOCTYPE svg PUBLIC "-//W3C//DTD SVG 1.1//EN"
 "http://www.w3.org/Graphics/SVG/1.1/DTD/svg11.dtd">
<!-- Generated by graphviz version 2.26.3 (20100126.1600)
 -->
<!-- Title: _anonymous_0 Pages: 1 -->
<svg width="152pt" height="98pt"
 viewBox="0.00 0.00 152.00 98.00" xmlns="http://www.w3.org/2000/svg" xmlns:xlink="http://www.w3.org/1999/xlink">
<g id="graph1" class="graph" transform="scale(1 1) rotate(0) translate(4 94)">
<title>_anonymous_0</title>
<polygon fill="white" stroke="white" points="-4,5 -4,-94 149,-94 149,5 -4,5"/>
<!-- c -->
<g id="node1" class="node"><title>c</title>
<polygon fill="none" stroke="purple" points="144,-63 90,-63 90,-27 144,-27 144,-63"/>
<text text-anchor="middle" x="117" y="-41.4" font-family="sans-serif" font-size="14.00" fill="purple">c</text>
</g>
<!-- b -->
<g id="node2" class="node"><title>b</title>
<polygon fill="none" stroke="lawngreen" points="54,-90 2.13163e-14,-90 0,-54 54,-54 54,-90"/>
<text text-anchor="middle" x="27" y="-68.4" font-family="sans-serif" font-size="14.00" fill="lawngreen">b</text>
</g>
<!-- b&#45;&gt;c -->
<g id="edge4" class="edge"><title>b&#45;&gt;c</title>
<path fill="none" stroke="black" d="M54.003,-63.8991C62.204,-61.4388 71.3599,-58.692 80.095,-56.0715"/>
<polygon fill="black" stroke="black" points="81.1325,-59.4144 89.705,-53.1885 79.121,-52.7096 81.1325,-59.4144"/>
</g>
<!-- a -->
<g id="node3" class="node"><title>a</title>
<polygon fill="none" stroke="lawngreen" points="54,-36 2.13163e-14,-36 0,-1.77636e-14 54,-3.55271e-15 54,-36"/>
<text text-anchor="middle" x="27" y="-14.4" font-family="sans-serif" font-size="14.00" fill="lawngreen">a</text>
</g>
<!-- a&#45;&gt;c -->
<g id="edge2" class="edge"><title>a&#45;&gt;c</title>
<path fill="none" stroke="black" d="M54.003,-26.1009C62.204,-28.5612 71.3599,-31.308 80.095,-33.9285"/>
<polygon fill="black" stroke="black" points="79.121,-37.2904 89.705,-36.8115 81.1325,-30.5856 79.121,-37.2904"/>
</g>
</g>
</svg>
