<?xml version="1.0" encoding="UTF-8" standalone="no"?>
<!DOCTYPE svg PUBLIC "-//W3C//DTD SVG 1.1//EN"
 "http://www.w3.org/Graphics/SVG/1.1/DTD/svg11.dtd">
<!-- Generated by graphviz version 2.26.3 (20100126.1600)
 -->
<!-- Title: _anonymous_0 Pages: 1 -->
<svg width="268pt" height="116pt"
 viewBox="0.00 0.00 268.00 116.00" xmlns="http://www.w3.org/2000/svg" xmlns:xlink="http://www.w3.org/1999/xlink">
<g id="graph1" class="graph" transform="scale(1 1) rotate(0) translate(4 112)">
<title>_anonymous_0</title>
<polygon fill="white" stroke="white" points="-4,5 -4,-112 265,-112 265,5 -4,5"/>
<!-- c_sum -->
<g id="node1" class="node"><title>c_sum</title>
<polygon fill="none" stroke="purple" points="248,-90 192,-90 192,-54 248,-54 248,-90"/>
<text text-anchor="middle" x="220" y="-68.4" font-family="sans-serif" font-size="14.00" fill="purple">c&#45;sum</text>
</g>
<!-- c_sum&#45;&gt;c_sum -->
<g id="edge10" class="edge"><title>c_sum&#45;&gt;c_sum</title>
<path fill="none" stroke="black" stroke-dasharray="5,2" d="M201.547,-90.1527C198.708,-99.5391 204.859,-108 220,-108 229.226,-108 235.114,-104.858 237.664,-100.28"/>
<polygon fill="black" stroke="black" points="241.166,-100.394 238.453,-90.1527 234.187,-99.8509 241.166,-100.394"/>
</g>
<!-- c -->
<g id="node2" class="node"><title>c</title>
<polygon fill="none" stroke="purple" points="144,-63 90,-63 90,-27 144,-27 144,-63"/>
<text text-anchor="middle" x="117" y="-41.4" font-family="sans-serif" font-size="14.00" fill="purple">c</text>
</g>
<!-- c&#45;&gt;c_sum -->
<g id="edge2" class="edge"><title>c&#45;&gt;c_sum</title>
<path fill="none" stroke="black" d="M144.062,-52.0939C155.538,-55.1021 169.121,-58.6627 181.603,-61.9349"/>
<polygon fill="black" stroke="black" points="180.757,-65.3311 191.317,-64.4812 182.532,-58.5599 180.757,-65.3311"/>
</g>
<!-- c_smooth -->
<g id="node3" class="node"><title>c_smooth</title>
<polygon fill="none" stroke="purple" points="260,-36 180,-36 180,-1.77636e-14 260,-3.55271e-15 260,-36"/>
<text text-anchor="middle" x="220" y="-14.4" font-family="sans-serif" font-size="14.00" fill="purple">c&#45;smooth</text>
</g>
<!-- c&#45;&gt;c_smooth -->
<g id="edge8" class="edge"><title>c&#45;&gt;c_smooth</title>
<path fill="none" stroke="black" d="M144.062,-31.8828C152.116,-29.254 161.208,-26.6296 170.229,-24.3001"/>
<polygon fill="black" stroke="black" points="171.069,-27.6979 179.938,-21.9019 169.39,-20.9022 171.069,-27.6979"/>
</g>
<!-- c&#45;&gt;c_smooth -->
<g id="edge12" class="edge"><title>c&#45;&gt;c_smooth</title>
<path fill="none" stroke="black" stroke-dasharray="5,2" d="M144.062,-43.9293C152.116,-42.3356 161.208,-40.1934 170.229,-37.7933"/>
<polygon fill="black" stroke="black" points="171.237,-41.1461 179.938,-35.1015 169.366,-34.4006 171.237,-41.1461"/>
</g>
<!-- b -->
<g id="node4" class="node"><title>b</title>
<polygon fill="none" stroke="lawngreen" points="54,-90 2.13163e-14,-90 0,-54 54,-54 54,-90"/>
<text text-anchor="middle" x="27" y="-68.4" font-family="sans-serif" font-size="14.00" fill="lawngreen">b</text>
</g>
<!-- b&#45;&gt;c -->
<g id="edge6" class="edge"><title>b&#45;&gt;c</title>
<path fill="none" stroke="black" d="M54.003,-63.8991C62.204,-61.4388 71.3599,-58.692 80.095,-56.0715"/>
<polygon fill="black" stroke="black" points="81.1325,-59.4144 89.705,-53.1885 79.121,-52.7096 81.1325,-59.4144"/>
</g>
<!-- a -->
<g id="node5" class="node"><title>a</title>
<polygon fill="none" stroke="lawngreen" points="54,-36 2.13163e-14,-36 0,-1.77636e-14 54,-3.55271e-15 54,-36"/>
<text text-anchor="middle" x="27" y="-14.4" font-family="sans-serif" font-size="14.00" fill="lawngreen">a</text>
</g>
<!-- a&#45;&gt;c -->
<g id="edge4" class="edge"><title>a&#45;&gt;c</title>
<path fill="none" stroke="black" d="M54.003,-26.1009C62.204,-28.5612 71.3599,-31.308 80.095,-33.9285"/>
<polygon fill="black" stroke="black" points="79.121,-37.2904 89.705,-36.8115 81.1325,-30.5856 79.121,-37.2904"/>
</g>
</g>
</svg>
